<mxfile host="app.diagrams.net" modified="2022-08-05T02:02:16.972Z" agent="5.0 (Macintosh; Intel Mac OS X 10_15_7) AppleWebKit/537.36 (KHTML, like Gecko) Chrome/103.0.0.0 Safari/537.36" etag="qzndHjpe1WSwivR2efDt" version="20.2.2" type="github" pages="2">
  <diagram id="C5RBs43oDa-KdzZeNtuy" name="Page-1">
    <mxGraphModel dx="1426" dy="794" grid="1" gridSize="10" guides="1" tooltips="1" connect="1" arrows="1" fold="1" page="1" pageScale="1" pageWidth="827" pageHeight="1169" math="0" shadow="0">
      <root>
        <mxCell id="WIyWlLk6GJQsqaUBKTNV-0" />
        <mxCell id="WIyWlLk6GJQsqaUBKTNV-1" parent="WIyWlLk6GJQsqaUBKTNV-0" />
        <mxCell id="WIyWlLk6GJQsqaUBKTNV-2" value="" style="rounded=0;html=1;jettySize=auto;orthogonalLoop=1;fontSize=11;endArrow=block;endFill=0;endSize=8;strokeWidth=1;shadow=0;labelBackgroundColor=none;edgeStyle=orthogonalEdgeStyle;" parent="WIyWlLk6GJQsqaUBKTNV-1" source="WIyWlLk6GJQsqaUBKTNV-3" target="WIyWlLk6GJQsqaUBKTNV-6" edge="1">
          <mxGeometry relative="1" as="geometry" />
        </mxCell>
        <mxCell id="WIyWlLk6GJQsqaUBKTNV-3" value="商品管理-列表" style="rounded=1;whiteSpace=wrap;html=1;fontSize=12;glass=0;strokeWidth=1;shadow=0;" parent="WIyWlLk6GJQsqaUBKTNV-1" vertex="1">
          <mxGeometry x="160" y="80" width="120" height="40" as="geometry" />
        </mxCell>
        <mxCell id="WIyWlLk6GJQsqaUBKTNV-4" value="有商品" style="rounded=0;html=1;jettySize=auto;orthogonalLoop=1;fontSize=11;endArrow=block;endFill=0;endSize=8;strokeWidth=1;shadow=0;labelBackgroundColor=none;edgeStyle=orthogonalEdgeStyle;" parent="WIyWlLk6GJQsqaUBKTNV-1" source="WIyWlLk6GJQsqaUBKTNV-6" target="WIyWlLk6GJQsqaUBKTNV-10" edge="1">
          <mxGeometry y="20" relative="1" as="geometry">
            <mxPoint as="offset" />
          </mxGeometry>
        </mxCell>
        <mxCell id="WIyWlLk6GJQsqaUBKTNV-5" value="没商品" style="edgeStyle=orthogonalEdgeStyle;rounded=0;html=1;jettySize=auto;orthogonalLoop=1;fontSize=11;endArrow=block;endFill=0;endSize=8;strokeWidth=1;shadow=0;labelBackgroundColor=none;" parent="WIyWlLk6GJQsqaUBKTNV-1" source="WIyWlLk6GJQsqaUBKTNV-6" target="WIyWlLk6GJQsqaUBKTNV-7" edge="1">
          <mxGeometry y="10" relative="1" as="geometry">
            <mxPoint as="offset" />
          </mxGeometry>
        </mxCell>
        <mxCell id="WIyWlLk6GJQsqaUBKTNV-6" value="加载当前店铺&lt;br&gt;商店列表接口" style="rhombus;whiteSpace=wrap;html=1;shadow=0;fontFamily=Helvetica;fontSize=12;align=center;strokeWidth=1;spacing=6;spacingTop=-4;" parent="WIyWlLk6GJQsqaUBKTNV-1" vertex="1">
          <mxGeometry x="170" y="170" width="100" height="90" as="geometry" />
        </mxCell>
        <mxCell id="lRUitn5sRMCQOZMyPuqV-1" value="" style="edgeStyle=orthogonalEdgeStyle;rounded=0;orthogonalLoop=1;jettySize=auto;html=1;" parent="WIyWlLk6GJQsqaUBKTNV-1" source="WIyWlLk6GJQsqaUBKTNV-7" target="lRUitn5sRMCQOZMyPuqV-0" edge="1">
          <mxGeometry relative="1" as="geometry" />
        </mxCell>
        <mxCell id="WIyWlLk6GJQsqaUBKTNV-7" value="弹窗modal" style="rounded=1;whiteSpace=wrap;html=1;fontSize=12;glass=0;strokeWidth=1;shadow=0;" parent="WIyWlLk6GJQsqaUBKTNV-1" vertex="1">
          <mxGeometry x="330" y="195" width="120" height="40" as="geometry" />
        </mxCell>
        <mxCell id="WIyWlLk6GJQsqaUBKTNV-8" value="点击商品状态 ，搜索，页码 置成1 ，修改参数，请求商品列表" style="rounded=0;html=1;jettySize=auto;orthogonalLoop=1;fontSize=11;endArrow=block;endFill=0;endSize=8;strokeWidth=1;shadow=0;labelBackgroundColor=none;edgeStyle=orthogonalEdgeStyle;" parent="WIyWlLk6GJQsqaUBKTNV-1" source="WIyWlLk6GJQsqaUBKTNV-10" edge="1">
          <mxGeometry x="-0.3333" y="50" relative="1" as="geometry">
            <mxPoint as="offset" />
            <mxPoint x="220" y="430" as="targetPoint" />
          </mxGeometry>
        </mxCell>
        <mxCell id="lRUitn5sRMCQOZMyPuqV-48" style="edgeStyle=orthogonalEdgeStyle;rounded=0;orthogonalLoop=1;jettySize=auto;html=1;exitX=0;exitY=0.5;exitDx=0;exitDy=0;entryX=0;entryY=0.5;entryDx=0;entryDy=0;" parent="WIyWlLk6GJQsqaUBKTNV-1" source="WIyWlLk6GJQsqaUBKTNV-10" target="WIyWlLk6GJQsqaUBKTNV-6" edge="1">
          <mxGeometry relative="1" as="geometry" />
        </mxCell>
        <mxCell id="WIyWlLk6GJQsqaUBKTNV-10" value="商品列表" style="rhombus;whiteSpace=wrap;html=1;shadow=0;fontFamily=Helvetica;fontSize=12;align=center;strokeWidth=1;spacing=6;spacingTop=-4;" parent="WIyWlLk6GJQsqaUBKTNV-1" vertex="1">
          <mxGeometry x="170" y="290" width="100" height="80" as="geometry" />
        </mxCell>
        <mxCell id="lRUitn5sRMCQOZMyPuqV-9" style="edgeStyle=none;rounded=0;orthogonalLoop=1;jettySize=auto;html=1;exitX=0.5;exitY=1;exitDx=0;exitDy=0;entryX=0.5;entryY=0;entryDx=0;entryDy=0;" parent="WIyWlLk6GJQsqaUBKTNV-1" source="lRUitn5sRMCQOZMyPuqV-0" edge="1">
          <mxGeometry relative="1" as="geometry">
            <mxPoint x="580" y="420" as="targetPoint" />
            <Array as="points">
              <mxPoint x="580" y="310" />
            </Array>
          </mxGeometry>
        </mxCell>
        <mxCell id="lRUitn5sRMCQOZMyPuqV-17" style="edgeStyle=orthogonalEdgeStyle;rounded=0;orthogonalLoop=1;jettySize=auto;html=1;exitX=0.5;exitY=1;exitDx=0;exitDy=0;entryX=0;entryY=0.5;entryDx=0;entryDy=0;" parent="WIyWlLk6GJQsqaUBKTNV-1" source="lRUitn5sRMCQOZMyPuqV-0" target="lRUitn5sRMCQOZMyPuqV-14" edge="1">
          <mxGeometry relative="1" as="geometry" />
        </mxCell>
        <mxCell id="lRUitn5sRMCQOZMyPuqV-19" style="edgeStyle=orthogonalEdgeStyle;rounded=0;orthogonalLoop=1;jettySize=auto;html=1;exitX=0.5;exitY=1;exitDx=0;exitDy=0;entryX=0;entryY=0.5;entryDx=0;entryDy=0;" parent="WIyWlLk6GJQsqaUBKTNV-1" source="lRUitn5sRMCQOZMyPuqV-0" target="lRUitn5sRMCQOZMyPuqV-18" edge="1">
          <mxGeometry relative="1" as="geometry" />
        </mxCell>
        <mxCell id="lRUitn5sRMCQOZMyPuqV-0" value="点击" style="rhombus;whiteSpace=wrap;html=1;rounded=1;glass=0;strokeWidth=1;shadow=0;" parent="WIyWlLk6GJQsqaUBKTNV-1" vertex="1">
          <mxGeometry x="541" y="178" width="80" height="74" as="geometry" />
        </mxCell>
        <mxCell id="lRUitn5sRMCQOZMyPuqV-11" value="创建商品" style="text;html=1;align=center;verticalAlign=middle;resizable=0;points=[];autosize=1;strokeColor=none;fillColor=none;" parent="WIyWlLk6GJQsqaUBKTNV-1" vertex="1">
          <mxGeometry x="590" y="252" width="70" height="30" as="geometry" />
        </mxCell>
        <mxCell id="lRUitn5sRMCQOZMyPuqV-14" value="新增商品页" style="whiteSpace=wrap;html=1;" parent="WIyWlLk6GJQsqaUBKTNV-1" vertex="1">
          <mxGeometry x="670" y="260" width="120" height="40" as="geometry" />
        </mxCell>
        <mxCell id="lRUitn5sRMCQOZMyPuqV-15" style="edgeStyle=orthogonalEdgeStyle;rounded=0;orthogonalLoop=1;jettySize=auto;html=1;exitX=0.5;exitY=1;exitDx=0;exitDy=0;" parent="WIyWlLk6GJQsqaUBKTNV-1" source="lRUitn5sRMCQOZMyPuqV-14" target="lRUitn5sRMCQOZMyPuqV-14" edge="1">
          <mxGeometry relative="1" as="geometry" />
        </mxCell>
        <mxCell id="lRUitn5sRMCQOZMyPuqV-44" value="" style="edgeStyle=orthogonalEdgeStyle;rounded=0;orthogonalLoop=1;jettySize=auto;html=1;" parent="WIyWlLk6GJQsqaUBKTNV-1" source="lRUitn5sRMCQOZMyPuqV-18" target="lRUitn5sRMCQOZMyPuqV-43" edge="1">
          <mxGeometry relative="1" as="geometry" />
        </mxCell>
        <mxCell id="lRUitn5sRMCQOZMyPuqV-18" value="导入商品页" style="whiteSpace=wrap;html=1;" parent="WIyWlLk6GJQsqaUBKTNV-1" vertex="1">
          <mxGeometry x="670" y="330" width="120" height="40" as="geometry" />
        </mxCell>
        <mxCell id="lRUitn5sRMCQOZMyPuqV-20" value="锦鲤导入" style="text;html=1;align=center;verticalAlign=middle;resizable=0;points=[];autosize=1;strokeColor=none;fillColor=none;" parent="WIyWlLk6GJQsqaUBKTNV-1" vertex="1">
          <mxGeometry x="590" y="320" width="70" height="30" as="geometry" />
        </mxCell>
        <mxCell id="lRUitn5sRMCQOZMyPuqV-23" value="" style="edgeStyle=orthogonalEdgeStyle;rounded=0;orthogonalLoop=1;jettySize=auto;html=1;" parent="WIyWlLk6GJQsqaUBKTNV-1" source="lRUitn5sRMCQOZMyPuqV-21" target="lRUitn5sRMCQOZMyPuqV-22" edge="1">
          <mxGeometry relative="1" as="geometry" />
        </mxCell>
        <mxCell id="lRUitn5sRMCQOZMyPuqV-26" value="" style="edgeStyle=orthogonalEdgeStyle;rounded=0;orthogonalLoop=1;jettySize=auto;html=1;" parent="WIyWlLk6GJQsqaUBKTNV-1" source="lRUitn5sRMCQOZMyPuqV-21" target="lRUitn5sRMCQOZMyPuqV-25" edge="1">
          <mxGeometry relative="1" as="geometry" />
        </mxCell>
        <mxCell id="rrVVFzeD0hqJWhRtqwBm-17" style="edgeStyle=orthogonalEdgeStyle;rounded=0;orthogonalLoop=1;jettySize=auto;html=1;exitX=0.5;exitY=1;exitDx=0;exitDy=0;" edge="1" parent="WIyWlLk6GJQsqaUBKTNV-1" source="lRUitn5sRMCQOZMyPuqV-21">
          <mxGeometry relative="1" as="geometry">
            <mxPoint x="579" y="540" as="targetPoint" />
          </mxGeometry>
        </mxCell>
        <mxCell id="lRUitn5sRMCQOZMyPuqV-21" value="&lt;article data-clipboard-cangjie=&quot;[&amp;quot;root&amp;quot;,{&amp;quot;copyFrom&amp;quot;:1179813706},[&amp;quot;p&amp;quot;,{&amp;quot;uuid&amp;quot;:&amp;quot;l3b8t54tkflup6r41&amp;quot;,&amp;quot;list&amp;quot;:{&amp;quot;listId&amp;quot;:&amp;quot;go6oheh0hr9&amp;quot;,&amp;quot;level&amp;quot;:0,&amp;quot;isOrdered&amp;quot;:true,&amp;quot;isTaskList&amp;quot;:false,&amp;quot;isChecked&amp;quot;:false,&amp;quot;listStyleType&amp;quot;:&amp;quot;DEC_LEN_LROM_P&amp;quot;,&amp;quot;symbolStyle&amp;quot;:{&amp;quot;color&amp;quot;:&amp;quot;#DFAB01&amp;quot;,&amp;quot;shd&amp;quot;:null},&amp;quot;listStyle&amp;quot;:{&amp;quot;format&amp;quot;:&amp;quot;decimal&amp;quot;,&amp;quot;text&amp;quot;:&amp;quot;%1.&amp;quot;,&amp;quot;align&amp;quot;:&amp;quot;left&amp;quot;},&amp;quot;hideSymbol&amp;quot;:false,&amp;quot;extraData&amp;quot;:{}},&amp;quot;ind&amp;quot;:{&amp;quot;left&amp;quot;:0}},[&amp;quot;span&amp;quot;,{&amp;quot;data-type&amp;quot;:&amp;quot;text&amp;quot;},[&amp;quot;span&amp;quot;,{&amp;quot;color&amp;quot;:&amp;quot;#ED7D33&amp;quot;,&amp;quot;data-type&amp;quot;:&amp;quot;leaf&amp;quot;},&amp;quot;有获得对应商家的授权，是否有可导入的商品&amp;quot;]]]]&quot; class=&quot;4ever-article&quot;&gt;&lt;ol&gt;&lt;li&gt;&lt;div style=&quot;text-align: left;&quot;&gt;&lt;span style=&quot;color:#ED7D33&quot;&gt;调用接口：是否获得对应商家的授权，是否有可导入的商品&lt;/span&gt;&lt;/div&gt;&lt;/li&gt;&lt;/ol&gt;&lt;/article&gt;" style="rhombus;whiteSpace=wrap;html=1;" parent="WIyWlLk6GJQsqaUBKTNV-1" vertex="1">
          <mxGeometry x="501.88" y="420" width="158.25" height="140" as="geometry" />
        </mxCell>
        <mxCell id="lRUitn5sRMCQOZMyPuqV-22" value="绑定接单平台" style="whiteSpace=wrap;html=1;" parent="WIyWlLk6GJQsqaUBKTNV-1" vertex="1">
          <mxGeometry x="770" y="460" width="120" height="60" as="geometry" />
        </mxCell>
        <mxCell id="lRUitn5sRMCQOZMyPuqV-24" value="不能导入" style="text;html=1;align=center;verticalAlign=middle;resizable=0;points=[];autosize=1;strokeColor=none;fillColor=none;" parent="WIyWlLk6GJQsqaUBKTNV-1" vertex="1">
          <mxGeometry x="660" y="445" width="70" height="30" as="geometry" />
        </mxCell>
        <mxCell id="lRUitn5sRMCQOZMyPuqV-29" value="" style="edgeStyle=orthogonalEdgeStyle;rounded=0;orthogonalLoop=1;jettySize=auto;html=1;" parent="WIyWlLk6GJQsqaUBKTNV-1" source="lRUitn5sRMCQOZMyPuqV-25" target="lRUitn5sRMCQOZMyPuqV-28" edge="1">
          <mxGeometry relative="1" as="geometry" />
        </mxCell>
        <mxCell id="lRUitn5sRMCQOZMyPuqV-32" value="" style="edgeStyle=orthogonalEdgeStyle;rounded=0;orthogonalLoop=1;jettySize=auto;html=1;" parent="WIyWlLk6GJQsqaUBKTNV-1" source="lRUitn5sRMCQOZMyPuqV-25" edge="1">
          <mxGeometry relative="1" as="geometry">
            <mxPoint x="581" y="775" as="targetPoint" />
          </mxGeometry>
        </mxCell>
        <mxCell id="lRUitn5sRMCQOZMyPuqV-25" value="平台导入" style="whiteSpace=wrap;html=1;" parent="WIyWlLk6GJQsqaUBKTNV-1" vertex="1">
          <mxGeometry x="521" y="635" width="120" height="60" as="geometry" />
        </mxCell>
        <mxCell id="lRUitn5sRMCQOZMyPuqV-27" value="可以导入" style="text;html=1;align=center;verticalAlign=middle;resizable=0;points=[];autosize=1;strokeColor=none;fillColor=none;" parent="WIyWlLk6GJQsqaUBKTNV-1" vertex="1">
          <mxGeometry x="590" y="555" width="70" height="30" as="geometry" />
        </mxCell>
        <mxCell id="lRUitn5sRMCQOZMyPuqV-28" value="关闭弹窗" style="whiteSpace=wrap;html=1;" parent="WIyWlLk6GJQsqaUBKTNV-1" vertex="1">
          <mxGeometry x="721" y="635" width="120" height="60" as="geometry" />
        </mxCell>
        <mxCell id="lRUitn5sRMCQOZMyPuqV-30" value="点击取消" style="text;html=1;align=center;verticalAlign=middle;resizable=0;points=[];autosize=1;strokeColor=none;fillColor=none;" parent="WIyWlLk6GJQsqaUBKTNV-1" vertex="1">
          <mxGeometry x="640" y="630" width="70" height="30" as="geometry" />
        </mxCell>
        <mxCell id="lRUitn5sRMCQOZMyPuqV-35" value="" style="edgeStyle=orthogonalEdgeStyle;rounded=0;orthogonalLoop=1;jettySize=auto;html=1;" parent="WIyWlLk6GJQsqaUBKTNV-1" edge="1">
          <mxGeometry relative="1" as="geometry">
            <mxPoint x="581" y="835" as="sourcePoint" />
            <mxPoint x="581" y="915" as="targetPoint" />
          </mxGeometry>
        </mxCell>
        <mxCell id="lRUitn5sRMCQOZMyPuqV-33" value="点击导入" style="text;html=1;align=center;verticalAlign=middle;resizable=0;points=[];autosize=1;strokeColor=none;fillColor=none;" parent="WIyWlLk6GJQsqaUBKTNV-1" vertex="1">
          <mxGeometry x="580" y="720" width="70" height="30" as="geometry" />
        </mxCell>
        <mxCell id="lRUitn5sRMCQOZMyPuqV-36" value="导入成功" style="text;html=1;align=center;verticalAlign=middle;resizable=0;points=[];autosize=1;strokeColor=none;fillColor=none;" parent="WIyWlLk6GJQsqaUBKTNV-1" vertex="1">
          <mxGeometry x="580" y="860" width="70" height="30" as="geometry" />
        </mxCell>
        <mxCell id="lRUitn5sRMCQOZMyPuqV-40" value="" style="edgeStyle=orthogonalEdgeStyle;rounded=0;orthogonalLoop=1;jettySize=auto;html=1;" parent="WIyWlLk6GJQsqaUBKTNV-1" source="lRUitn5sRMCQOZMyPuqV-38" target="lRUitn5sRMCQOZMyPuqV-39" edge="1">
          <mxGeometry relative="1" as="geometry" />
        </mxCell>
        <mxCell id="lRUitn5sRMCQOZMyPuqV-38" value="加载导入动画" style="rhombus;whiteSpace=wrap;html=1;" parent="WIyWlLk6GJQsqaUBKTNV-1" vertex="1">
          <mxGeometry x="541" y="770" width="80" height="80" as="geometry" />
        </mxCell>
        <mxCell id="lRUitn5sRMCQOZMyPuqV-39" value="文案：导入失败" style="whiteSpace=wrap;html=1;" parent="WIyWlLk6GJQsqaUBKTNV-1" vertex="1">
          <mxGeometry x="681" y="780" width="120" height="60" as="geometry" />
        </mxCell>
        <mxCell id="lRUitn5sRMCQOZMyPuqV-41" value="关闭所有弹窗，&lt;br&gt;刷新商品列表" style="whiteSpace=wrap;html=1;" parent="WIyWlLk6GJQsqaUBKTNV-1" vertex="1">
          <mxGeometry x="521" y="920" width="120" height="60" as="geometry" />
        </mxCell>
        <mxCell id="lRUitn5sRMCQOZMyPuqV-42" value="&lt;span style=&quot;&quot;&gt;导入失败&lt;/span&gt;" style="text;html=1;align=center;verticalAlign=middle;resizable=0;points=[];autosize=1;strokeColor=none;fillColor=none;" parent="WIyWlLk6GJQsqaUBKTNV-1" vertex="1">
          <mxGeometry x="605" y="775" width="70" height="30" as="geometry" />
        </mxCell>
        <mxCell id="lRUitn5sRMCQOZMyPuqV-43" value="刷新商品列表页" style="whiteSpace=wrap;html=1;" parent="WIyWlLk6GJQsqaUBKTNV-1" vertex="1">
          <mxGeometry x="870" y="320" width="120" height="60" as="geometry" />
        </mxCell>
        <mxCell id="lRUitn5sRMCQOZMyPuqV-45" value="导入成功" style="text;html=1;align=center;verticalAlign=middle;resizable=0;points=[];autosize=1;strokeColor=none;fillColor=none;" parent="WIyWlLk6GJQsqaUBKTNV-1" vertex="1">
          <mxGeometry x="795" y="325" width="70" height="30" as="geometry" />
        </mxCell>
        <mxCell id="lRUitn5sRMCQOZMyPuqV-49" value="切换门店" style="text;html=1;align=center;verticalAlign=middle;resizable=0;points=[];autosize=1;strokeColor=none;fillColor=none;" parent="WIyWlLk6GJQsqaUBKTNV-1" vertex="1">
          <mxGeometry x="90" y="260" width="70" height="30" as="geometry" />
        </mxCell>
        <mxCell id="rrVVFzeD0hqJWhRtqwBm-6" style="edgeStyle=orthogonalEdgeStyle;rounded=0;orthogonalLoop=1;jettySize=auto;html=1;exitX=0.5;exitY=1;exitDx=0;exitDy=0;entryX=1;entryY=0.5;entryDx=0;entryDy=0;" edge="1" parent="WIyWlLk6GJQsqaUBKTNV-1" source="rrVVFzeD0hqJWhRtqwBm-3" target="rrVVFzeD0hqJWhRtqwBm-4">
          <mxGeometry relative="1" as="geometry" />
        </mxCell>
        <mxCell id="rrVVFzeD0hqJWhRtqwBm-10" style="edgeStyle=orthogonalEdgeStyle;rounded=0;orthogonalLoop=1;jettySize=auto;html=1;exitX=0.5;exitY=1;exitDx=0;exitDy=0;entryX=1;entryY=0.5;entryDx=0;entryDy=0;" edge="1" parent="WIyWlLk6GJQsqaUBKTNV-1" source="rrVVFzeD0hqJWhRtqwBm-3" target="rrVVFzeD0hqJWhRtqwBm-9">
          <mxGeometry relative="1" as="geometry" />
        </mxCell>
        <mxCell id="rrVVFzeD0hqJWhRtqwBm-15" style="edgeStyle=orthogonalEdgeStyle;rounded=0;orthogonalLoop=1;jettySize=auto;html=1;exitX=0.5;exitY=1;exitDx=0;exitDy=0;entryX=1;entryY=0.5;entryDx=0;entryDy=0;" edge="1" parent="WIyWlLk6GJQsqaUBKTNV-1" source="rrVVFzeD0hqJWhRtqwBm-3" target="rrVVFzeD0hqJWhRtqwBm-14">
          <mxGeometry relative="1" as="geometry" />
        </mxCell>
        <mxCell id="rrVVFzeD0hqJWhRtqwBm-3" value="点击" style="rhombus;whiteSpace=wrap;html=1;" vertex="1" parent="WIyWlLk6GJQsqaUBKTNV-1">
          <mxGeometry x="180" y="435" width="80" height="80" as="geometry" />
        </mxCell>
        <mxCell id="rrVVFzeD0hqJWhRtqwBm-4" value="请求数据页码+1，其他搜索条件不变 设置state，请求接口，使用antd 无限滚动，当前页*页码 大于 总数目，不可滚动" style="whiteSpace=wrap;html=1;" vertex="1" parent="WIyWlLk6GJQsqaUBKTNV-1">
          <mxGeometry x="20" y="575" width="120" height="85" as="geometry" />
        </mxCell>
        <mxCell id="rrVVFzeD0hqJWhRtqwBm-9" value="请求接口，刷新列表" style="rounded=1;whiteSpace=wrap;html=1;" vertex="1" parent="WIyWlLk6GJQsqaUBKTNV-1">
          <mxGeometry x="20" y="705" width="120" height="60" as="geometry" />
        </mxCell>
        <mxCell id="rrVVFzeD0hqJWhRtqwBm-11" value="&lt;span style=&quot;&quot;&gt;向下滑动&lt;/span&gt;" style="text;html=1;align=center;verticalAlign=middle;resizable=0;points=[];autosize=1;strokeColor=none;fillColor=none;" vertex="1" parent="WIyWlLk6GJQsqaUBKTNV-1">
          <mxGeometry x="140" y="585" width="70" height="30" as="geometry" />
        </mxCell>
        <mxCell id="rrVVFzeD0hqJWhRtqwBm-13" value="上架/下架" style="text;html=1;align=center;verticalAlign=middle;resizable=0;points=[];autosize=1;strokeColor=none;fillColor=none;" vertex="1" parent="WIyWlLk6GJQsqaUBKTNV-1">
          <mxGeometry x="140" y="705" width="70" height="30" as="geometry" />
        </mxCell>
        <mxCell id="rrVVFzeD0hqJWhRtqwBm-14" value="&lt;br&gt;企微 分享给其他人&lt;br&gt;app 弹出分享modal" style="rounded=1;whiteSpace=wrap;html=1;" vertex="1" parent="WIyWlLk6GJQsqaUBKTNV-1">
          <mxGeometry x="20" y="820" width="120" height="60" as="geometry" />
        </mxCell>
        <mxCell id="rrVVFzeD0hqJWhRtqwBm-16" value="分享" style="text;html=1;align=center;verticalAlign=middle;resizable=0;points=[];autosize=1;strokeColor=none;fillColor=none;" vertex="1" parent="WIyWlLk6GJQsqaUBKTNV-1">
          <mxGeometry x="150" y="820" width="50" height="30" as="geometry" />
        </mxCell>
      </root>
    </mxGraphModel>
  </diagram>
  <diagram id="1pnI-4W7wQsX9n98Vaah" name="第 2 页">
    <mxGraphModel dx="911" dy="589" grid="1" gridSize="10" guides="1" tooltips="1" connect="1" arrows="1" fold="1" page="1" pageScale="1" pageWidth="827" pageHeight="1169" math="0" shadow="0">
      <root>
        <mxCell id="0" />
        <mxCell id="1" parent="0" />
      </root>
    </mxGraphModel>
  </diagram>
</mxfile>
